#N canvas 139 239 263 248 12;
#X text 127 37 slow modulation;
#X obj 43 201 outlet~;
#X obj 43 10 inlet;
#X obj 43 68 mtof;
#N canvas 607 220 450 300 synth_voice 0;
#X floatatom 43 63 5 0 0 0 - - - 0;
#X obj 43 86 sig~;
#X obj 43 110 +~;
#X obj 43 134 phasor~;
#X obj 43 158 expr~ $v1 > $v2;
#X obj 183 50 osc~ 2.1;
#X obj 183 74 *~ 0.4;
#X obj 183 104 +~ 0.5;
#X text 182 126 pulse width modulation, f 11;
#X obj 90 60 osc~ 5;
#X obj 90 84 *~ 3;
#X obj 41 36 inlet;
#X obj 43 193 outlet~;
#X connect 0 0 1 0;
#X connect 1 0 2 0;
#X connect 2 0 3 0;
#X connect 3 0 4 0;
#X connect 4 0 12 0;
#X connect 5 0 6 0;
#X connect 6 0 7 0;
#X connect 7 0 4 1;
#X connect 9 0 10 0;
#X connect 10 0 2 1;
#X connect 11 0 0 0;
#X restore 43 115 pd synth_voice;
#X obj 43 158 *~;
#X obj 43 41 unpack i i;
#N canvas 962 416 450 300 env 1;
#X obj 32 66 sel 0;
#X msg 32 90 0;
#X obj 148 104 / 127;
#X obj 148 128 pack 0 400;
#X floatatom 219 92 5 0 0 0 - - - 0;
#X obj 27 129 pack 0 400;
#X floatatom 95 104 5 0 0 0 - - - 0;
#X obj 27 156 line~;
#X obj 31 26 inlet;
#X obj 27 180 outlet~;
#X connect 0 0 1 0;
#X connect 0 1 2 0;
#X connect 1 0 5 0;
#X connect 2 0 3 0;
#X connect 3 0 7 0;
#X connect 4 0 3 1;
#X connect 5 0 7 0;
#X connect 6 0 5 1;
#X connect 7 0 9 0;
#X connect 8 0 0 0;
#X restore 155 115 pd env;
#X connect 2 0 6 0;
#X connect 3 0 4 0;
#X connect 4 0 5 0;
#X connect 5 0 1 0;
#X connect 6 0 3 0;
#X connect 6 1 7 0;
#X connect 7 0 5 1;
